<svg width="32" height="34" viewBox="0 0 32 34" fill="none" xmlns="http://www.w3.org/2000/svg">
<g filter="url(#filter0_d_25_396)">
<path d="M28 13.0791C28 5.85396 22.629 0 16 0C9.37097 0 4 5.85396 4 13.0791C4 19.6071 8.38823 25.018 14.125 26V16.8599H11.0766V13.0791H14.125V10.1975C14.125 6.9198 15.9153 5.10929 18.6574 5.10929C19.9706 5.10929 21.3439 5.36454 21.3439 5.36454V8.58158H19.8303C18.34 8.58158 17.875 9.58994 17.875 10.6241V13.0791H21.2031L20.6708 16.8599H17.875V26C23.6118 25.018 28 19.6071 28 13.0791Z" fill="white"/>
</g>
<defs>
<filter id="filter0_d_25_396" x="0" y="0" width="32" height="34" filterUnits="userSpaceOnUse" color-interpolation-filters="sRGB">
<feFlood flood-opacity="0" result="BackgroundImageFix"/>
<feColorMatrix in="SourceAlpha" type="matrix" values="0 0 0 0 0 0 0 0 0 0 0 0 0 0 0 0 0 0 127 0" result="hardAlpha"/>
<feOffset dy="4"/>
<feGaussianBlur stdDeviation="2"/>
<feComposite in2="hardAlpha" operator="out"/>
<feColorMatrix type="matrix" values="0 0 0 0 0 0 0 0 0 0 0 0 0 0 0 0 0 0 0.25 0"/>
<feBlend mode="normal" in2="BackgroundImageFix" result="effect1_dropShadow_25_396"/>
<feBlend mode="normal" in="SourceGraphic" in2="effect1_dropShadow_25_396" result="shape"/>
</filter>
</defs>
</svg>
