<svg width="30" height="32" viewBox="0 0 30 32" fill="none" xmlns="http://www.w3.org/2000/svg">
<g filter="url(#filter0_d_25_394)">
<path d="M15.0025 5.8467C11.881 5.8467 9.36319 8.594 9.36319 12C9.36319 15.406 11.881 18.1533 15.0025 18.1533C18.1239 18.1533 20.6417 15.406 20.6417 12C20.6417 8.594 18.1239 5.8467 15.0025 5.8467ZM15.0025 16.0004C12.9853 16.0004 11.3362 14.2064 11.3362 12C11.3362 9.7936 12.9804 7.99955 15.0025 7.99955C17.0245 7.99955 18.6687 9.7936 18.6687 12C18.6687 14.2064 17.0196 16.0004 15.0025 16.0004V16.0004ZM22.1877 5.595C22.1877 6.39295 21.5988 7.03024 20.8724 7.03024C20.1411 7.03024 19.5571 6.38759 19.5571 5.595C19.5571 4.80241 20.146 4.15977 20.8724 4.15977C21.5988 4.15977 22.1877 4.80241 22.1877 5.595ZM25.9227 7.05166C25.8393 5.12909 25.4368 3.42609 24.146 2.02298C22.8601 0.619882 21.2994 0.180743 19.5374 0.0843468C17.7215 -0.0281156 12.2785 -0.0281156 10.4626 0.0843468C8.70552 0.175388 7.14479 0.614526 5.85399 2.01763C4.56319 3.42073 4.16564 5.12373 4.0773 7.0463C3.97423 9.02778 3.97423 14.9669 4.0773 16.9483C4.16074 18.8709 4.56319 20.5739 5.85399 21.977C7.14479 23.3801 8.70061 23.8193 10.4626 23.9157C12.2785 24.0281 17.7215 24.0281 19.5374 23.9157C21.2994 23.8246 22.8601 23.3855 24.146 21.977C25.4319 20.5739 25.8344 18.8709 25.9227 16.9483C26.0258 14.9669 26.0258 9.03314 25.9227 7.05166V7.05166ZM23.5767 19.0744C23.1939 20.1241 22.4528 20.9327 21.4859 21.3558C20.038 21.9824 16.6025 21.8378 15.0025 21.8378C13.4025 21.8378 9.96196 21.977 8.51902 21.3558C7.55705 20.9381 6.81595 20.1294 6.42822 19.0744C5.85399 17.4946 5.9865 13.7458 5.9865 12C5.9865 10.2542 5.8589 6.50006 6.42822 4.92558C6.81104 3.87593 7.55215 3.06728 8.51902 2.6442C9.96687 2.01763 13.4025 2.16222 15.0025 2.16222C16.6025 2.16222 20.0429 2.02298 21.4859 2.6442C22.4479 3.06192 23.189 3.87058 23.5767 4.92558C24.1509 6.50541 24.0184 10.2542 24.0184 12C24.0184 13.7458 24.1509 17.4999 23.5767 19.0744Z" fill="white"/>
</g>
<defs>
<filter id="filter0_d_25_394" x="0" y="0" width="30" height="32" filterUnits="userSpaceOnUse" color-interpolation-filters="sRGB">
<feFlood flood-opacity="0" result="BackgroundImageFix"/>
<feColorMatrix in="SourceAlpha" type="matrix" values="0 0 0 0 0 0 0 0 0 0 0 0 0 0 0 0 0 0 127 0" result="hardAlpha"/>
<feOffset dy="4"/>
<feGaussianBlur stdDeviation="2"/>
<feComposite in2="hardAlpha" operator="out"/>
<feColorMatrix type="matrix" values="0 0 0 0 0 0 0 0 0 0 0 0 0 0 0 0 0 0 0.25 0"/>
<feBlend mode="normal" in2="BackgroundImageFix" result="effect1_dropShadow_25_394"/>
<feBlend mode="normal" in="SourceGraphic" in2="effect1_dropShadow_25_394" result="shape"/>
</filter>
</defs>
</svg>
