<svg width="46" height="47" viewBox="0 0 46 47" fill="none" xmlns="http://www.w3.org/2000/svg">
<g filter="url(#filter0_d_25_409)">
<path d="M38.8413 22.952L41.96 7.10828C42.1851 5.96433 41.4321 4.875 40.416 4.875H14.5033L13.8986 1.46174C13.7479 0.610975 13.0996 0 12.3474 0H5.58333C4.70887 0 4 0.818467 4 1.82812V3.04688C4 4.05653 4.70887 4.875 5.58333 4.875H10.1937L14.8281 31.0351C13.7194 31.7713 12.9722 33.1517 12.9722 34.7344C12.9722 37.0902 14.6263 39 16.6667 39C18.7071 39 20.3611 37.0902 20.3611 34.7344C20.3611 33.5405 19.9358 32.4618 19.2512 31.6875H33.0821C32.3976 32.4618 31.9722 33.5405 31.9722 34.7344C31.9722 37.0902 33.6263 39 35.6667 39C37.7071 39 39.3611 37.0902 39.3611 34.7344C39.3611 33.0455 38.5109 31.586 37.2778 30.8949L37.6418 29.0458C37.8669 27.9018 37.1138 26.8125 36.0978 26.8125H18.3897L17.9579 24.375H37.2973C38.0366 24.375 38.6774 23.7844 38.8413 22.952Z" fill="#CD5905"/>
<path d="M14.011 4.96222L14.0841 5.375H14.5033H40.416C41.0328 5.375 41.6512 6.08808 41.4694 7.01172L38.3507 22.8555L38.8413 22.952L38.3507 22.8555C38.2233 23.5028 37.7507 23.875 37.2973 23.875H17.9579H17.3615L17.4655 24.4622L17.8973 26.8997L17.9705 27.3125H18.3897H36.0978C36.7146 27.3125 37.333 28.0256 37.1512 28.9492L36.7872 30.7984L36.7172 31.1539L37.0333 31.3311C38.0925 31.9247 38.8611 33.2072 38.8611 34.7344C38.8611 36.884 37.3659 38.5 35.6667 38.5C33.9675 38.5 32.4722 36.884 32.4722 34.7344C32.4722 33.6583 32.8556 32.6985 33.4567 32.0187L34.1915 31.1875H33.0821H19.2512H18.1417L18.8766 32.0187C19.4777 32.6985 19.8611 33.6583 19.8611 34.7344C19.8611 36.884 18.3659 38.5 16.6667 38.5C14.9675 38.5 13.4722 36.884 13.4722 34.7344C13.4722 33.3047 14.1471 32.0874 15.1047 31.4516L15.3776 31.2704L15.3204 30.9479L10.686 4.78778L10.6129 4.375H10.1937H5.58333C5.05007 4.375 4.5 3.85029 4.5 3.04688V1.82812C4.5 1.02471 5.05007 0.5 5.58333 0.5H12.3474C12.8084 0.5 13.2888 0.88562 13.4063 1.54894L13.4063 1.54896L14.011 4.96222Z" stroke="white"/>
</g>
<defs>
<filter id="filter0_d_25_409" x="0" y="0" width="46" height="47" filterUnits="userSpaceOnUse" color-interpolation-filters="sRGB">
<feFlood flood-opacity="0" result="BackgroundImageFix"/>
<feColorMatrix in="SourceAlpha" type="matrix" values="0 0 0 0 0 0 0 0 0 0 0 0 0 0 0 0 0 0 127 0" result="hardAlpha"/>
<feOffset dy="4"/>
<feGaussianBlur stdDeviation="2"/>
<feComposite in2="hardAlpha" operator="out"/>
<feColorMatrix type="matrix" values="0 0 0 0 0 0 0 0 0 0 0 0 0 0 0 0 0 0 0.25 0"/>
<feBlend mode="normal" in2="BackgroundImageFix" result="effect1_dropShadow_25_409"/>
<feBlend mode="normal" in="SourceGraphic" in2="effect1_dropShadow_25_409" result="shape"/>
</filter>
</defs>
</svg>
