<svg width="47" height="47" viewBox="0 0 47 47" fill="none" xmlns="http://www.w3.org/2000/svg">
<g filter="url(#filter0_d_25_408)">
<path d="M41.6071 33.4286H5.39286C5.02345 33.4286 4.66917 33.5753 4.40796 33.8365C4.14675 34.0977 4 34.452 4 34.8214V37.6071C4 37.9766 4.14675 38.3308 4.40796 38.592C4.66917 38.8533 5.02345 39 5.39286 39H41.6071C41.9766 39 42.3308 38.8533 42.592 38.592C42.8533 38.3308 43 37.9766 43 37.6071V34.8214C43 34.452 42.8533 34.0977 42.592 33.8365C42.3308 33.5753 41.9766 33.4286 41.6071 33.4286ZM41.6071 22.2857H5.39286C5.02345 22.2857 4.66917 22.4325 4.40796 22.6937C4.14675 22.9549 4 23.3092 4 23.6786V26.4643C4 26.8337 4.14675 27.188 4.40796 27.4492C4.66917 27.7104 5.02345 27.8571 5.39286 27.8571H41.6071C41.9766 27.8571 42.3308 27.7104 42.592 27.4492C42.8533 27.188 43 26.8337 43 26.4643V23.6786C43 23.3092 42.8533 22.9549 42.592 22.6937C42.3308 22.4325 41.9766 22.2857 41.6071 22.2857ZM41.6071 11.1429H5.39286C5.02345 11.1429 4.66917 11.2896 4.40796 11.5508C4.14675 11.812 4 12.1663 4 12.5357V15.3214C4 15.6908 4.14675 16.0451 4.40796 16.3063C4.66917 16.5675 5.02345 16.7143 5.39286 16.7143H41.6071C41.9766 16.7143 42.3308 16.5675 42.592 16.3063C42.8533 16.0451 43 15.6908 43 15.3214V12.5357C43 12.1663 42.8533 11.812 42.592 11.5508C42.3308 11.2896 41.9766 11.1429 41.6071 11.1429ZM41.6071 0H5.39286C5.02345 0 4.66917 0.146747 4.40796 0.407958C4.14675 0.66917 4 1.02345 4 1.39286V4.17857C4 4.54798 4.14675 4.90226 4.40796 5.16347C4.66917 5.42468 5.02345 5.57143 5.39286 5.57143H41.6071C41.9766 5.57143 42.3308 5.42468 42.592 5.16347C42.8533 4.90226 43 4.54798 43 4.17857V1.39286C43 1.02345 42.8533 0.66917 42.592 0.407958C42.3308 0.146747 41.9766 0 41.6071 0Z" fill="#CD5905"/>
<path d="M5.39286 33.9286H41.6071C41.8439 33.9286 42.0711 34.0226 42.2385 34.1901C42.4059 34.3575 42.5 34.5846 42.5 34.8214V37.6071C42.5 37.8439 42.4059 38.0711 42.2385 38.2385C42.0711 38.4059 41.8439 38.5 41.6071 38.5H5.39286C5.15605 38.5 4.92895 38.4059 4.76151 38.2385C4.59407 38.071 4.5 37.8439 4.5 37.6071V34.8214C4.5 34.5846 4.59407 34.3575 4.76151 34.1901C4.92895 34.0226 5.15605 33.9286 5.39286 33.9286ZM5.39286 22.7857H41.6071C41.8439 22.7857 42.071 22.8798 42.2385 23.0472C42.4059 23.2147 42.5 23.4418 42.5 23.6786V26.4643C42.5 26.7011 42.4059 26.9282 42.2385 27.0956C42.071 27.2631 41.8439 27.3571 41.6071 27.3571H5.39286C5.15606 27.3571 4.92895 27.2631 4.76151 27.0956C4.59407 26.9282 4.5 26.7011 4.5 26.4643V23.6786C4.5 23.4418 4.59407 23.2147 4.76151 23.0472C4.92895 22.8798 5.15606 22.7857 5.39286 22.7857ZM5.39286 11.6429H41.6071C41.8439 11.6429 42.071 11.7369 42.2385 11.9044C42.4059 12.0718 42.5 12.2989 42.5 12.5357V15.3214C42.5 15.5582 42.4059 15.7853 42.2385 15.9528C42.071 16.1202 41.8439 16.2143 41.6071 16.2143H5.39286C5.15606 16.2143 4.92896 16.1202 4.76151 15.9528C4.59407 15.7853 4.5 15.5582 4.5 15.3214V12.5357C4.5 12.2989 4.59407 12.0718 4.76151 11.9044C4.92896 11.7369 5.15606 11.6429 5.39286 11.6429ZM5.39286 0.5H41.6071C41.8439 0.5 42.071 0.594069 42.2385 0.761512C42.4059 0.928953 42.5 1.15605 42.5 1.39286V4.17857C42.5 4.41538 42.4059 4.64248 42.2385 4.80992C42.071 4.97736 41.8439 5.07143 41.6071 5.07143H5.39286C5.15606 5.07143 4.92896 4.97736 4.76151 4.80992C4.59407 4.64247 4.5 4.41537 4.5 4.17857V1.39286C4.5 1.15606 4.59407 0.928955 4.76151 0.761512C4.92896 0.594069 5.15606 0.5 5.39286 0.5Z" stroke="white"/>
</g>
<defs>
<filter id="filter0_d_25_408" x="0" y="0" width="47" height="47" filterUnits="userSpaceOnUse" color-interpolation-filters="sRGB">
<feFlood flood-opacity="0" result="BackgroundImageFix"/>
<feColorMatrix in="SourceAlpha" type="matrix" values="0 0 0 0 0 0 0 0 0 0 0 0 0 0 0 0 0 0 127 0" result="hardAlpha"/>
<feOffset dy="4"/>
<feGaussianBlur stdDeviation="2"/>
<feComposite in2="hardAlpha" operator="out"/>
<feColorMatrix type="matrix" values="0 0 0 0 0 0 0 0 0 0 0 0 0 0 0 0 0 0 0.25 0"/>
<feBlend mode="normal" in2="BackgroundImageFix" result="effect1_dropShadow_25_408"/>
<feBlend mode="normal" in="SourceGraphic" in2="effect1_dropShadow_25_408" result="shape"/>
</filter>
</defs>
</svg>
